<svg width="183" height="76" viewBox="0 0 183 76" fill="none" xmlns="http://www.w3.org/2000/svg">
<path d="M158.877 48.2241C158.877 45.8995 158.877 43.5748 158.877 41.2641C158.877 39.4405 159.555 38.7585 161.353 38.7585C165.584 38.7585 169.803 38.7585 174.033 38.7585C176.537 38.7585 178.141 37.5474 178.915 35.0975C179.469 33.3297 179.247 31.6314 178.363 30.0306C177.533 28.5273 176.371 27.706 174.517 27.8731C172.997 28.0262 171.447 27.9427 169.913 27.8731C168.682 27.8174 167.825 26.9683 167.908 25.9521C167.991 24.7967 168.71 24.0729 169.816 24.0868C172.277 24.1007 174.739 23.7666 177.215 24.3234C178.334 24.574 179.206 25.1308 179.953 25.8825C184.405 30.3508 183.977 38.0625 178.68 41.5704C177.629 42.2664 176.495 42.6561 175.195 42.6422C171.476 42.6005 167.769 42.67 164.049 42.6005C163.012 42.5865 162.68 42.8093 162.694 43.9229C162.763 47.7926 162.722 51.6624 162.722 55.5322C162.722 56.3952 162.514 57.1607 161.685 57.5922C161.021 57.9403 160.357 57.8985 159.749 57.4809C159.016 57.0077 158.892 56.2559 158.892 55.4486C158.892 53.0404 158.892 50.6323 158.892 48.2241H158.877Z" fill="white"/>
<path d="M43.94 31.8567C42.2944 36.325 40.6626 40.7794 39.017 45.2477C37.6895 48.867 36.3619 52.5 35.0205 56.1192C34.4397 57.6922 33.5686 58.2351 32.3793 57.8314C31.2315 57.4278 30.8996 56.4115 31.4804 54.8247C34.094 47.6559 36.7353 40.4871 39.3627 33.3183C40.234 30.9379 41.1466 28.5855 41.9763 26.1912C42.3359 25.1611 42.9028 24.3677 44.0091 24.3538C45.1846 24.3538 45.8069 25.2029 46.1802 26.233C47.5354 29.9775 48.9045 33.722 50.2598 37.4804C51.4352 40.7098 52.6106 43.9253 53.7584 47.1548C54.0903 48.0874 54.2147 49.0201 53.3712 49.7578C52.3617 50.6347 50.9097 50.1337 50.3427 48.6442C49.2502 45.7628 48.2269 42.8396 47.1759 39.9442C46.1941 37.2576 45.2123 34.5711 44.2443 31.8845C44.1474 31.8845 44.0506 31.8706 43.9539 31.8567H43.94Z" fill="white"/>
<path d="M24.2277 57.7036C23.4395 57.6479 22.9001 57.3 22.4714 56.6874C19.1249 51.9268 15.7645 47.1801 12.4042 42.4195C11.7127 41.4311 11.6989 40.4568 12.4042 39.4685C15.7645 34.7217 19.1111 29.9611 22.4852 25.2143C23.232 24.1564 24.3522 23.8919 25.2511 24.4905C26.1361 25.089 26.2744 26.3558 25.5 27.4694C22.5544 31.6732 19.6089 35.8771 16.6081 40.0531C16.1241 40.7212 16.0964 41.1248 16.5942 41.8208C19.5674 45.9551 22.4715 50.1312 25.417 54.2933C25.984 55.0866 26.1914 55.9219 25.7765 56.8127C25.4722 57.4669 24.8499 57.6619 24.2415 57.7036H24.2277Z" fill="white"/>
<path d="M3.84435 40.9437C3.84435 45.8019 3.84435 50.66 3.84435 55.5181C3.84435 56.4229 3.60927 57.2162 2.69659 57.6339C1.94984 57.9679 1.2584 57.8288 0.663766 57.3137C0.0276471 56.757 -2.04633e-10 55.9635 0 55.17C1.4539e-09 49.5324 7.37747e-07 43.9088 7.39201e-07 38.2712C7.40156e-07 34.5684 1.22354e-06 30.8796 1.2245e-06 27.1769C1.22457e-06 26.9124 1.25853e-06 26.6619 1.2586e-06 26.3974C0.0414873 24.8801 0.774395 23.9892 1.96366 24.017C3.11144 24.0449 3.81669 24.894 3.84435 26.3417C3.87201 27.3718 3.84435 28.4019 3.84435 29.4319C3.84435 33.26 3.84435 37.0879 3.84435 40.9159V40.9437Z" fill="white"/>
<path d="M140.444 24.045C143.389 24.045 146.321 24.045 149.267 24.045C149.875 24.045 150.456 24.0868 151.023 24.3234C151.797 24.6297 152.115 25.2978 152.102 26.0495C152.088 26.7595 151.756 27.3719 151.023 27.6503C150.498 27.8452 149.958 27.9287 149.391 27.9287C143.293 27.9287 137.208 27.9287 131.11 27.9287C130.543 27.9287 130.003 27.8591 129.491 27.6364C128.773 27.3301 128.468 26.6759 128.468 25.9799C128.468 25.2839 128.773 24.6297 129.491 24.3234C130.045 24.0868 130.639 24.0311 131.247 24.0311C134.318 24.0311 137.388 24.0311 140.458 24.0311L140.444 24.045Z" fill="white"/>
<path d="M75.3391 42.6143C72.3521 42.6143 69.3652 42.6143 66.3782 42.6143C66.0325 42.6143 65.6867 42.6283 65.3548 42.5865C64.2762 42.4333 63.6539 41.793 63.5709 40.7212C63.5018 39.7189 64.29 38.9116 65.4101 38.7724C65.7835 38.7306 66.1707 38.7446 66.5579 38.7446C72.4075 38.7446 78.257 38.7445 84.0928 38.7445C84.4384 38.7445 84.7842 38.7307 85.116 38.7445C86.333 38.856 87.1212 39.6355 87.0935 40.6934C87.0798 41.7513 86.2915 42.503 85.0607 42.6003C84.6735 42.6283 84.2863 42.6004 83.9129 42.6004C81.0504 42.6004 78.1879 42.6004 75.3391 42.6004V42.6143Z" fill="white"/>
<path d="M140.168 42.6283C137.181 42.6283 134.194 42.6283 131.207 42.6283C130.861 42.6283 130.515 42.6421 130.184 42.6005C129.105 42.4473 128.482 41.807 128.399 40.7352C128.33 39.7329 129.119 38.9256 130.238 38.7863C130.612 38.7446 130.999 38.7585 131.386 38.7585C137.235 38.7585 143.086 38.7585 148.921 38.7585C149.267 38.7585 149.612 38.7445 149.944 38.7585C151.162 38.8698 151.949 39.6493 151.922 40.7073C151.908 41.7792 151.119 42.5169 149.875 42.6005C149.488 42.6283 149.101 42.6005 148.727 42.6005C145.865 42.6005 143.003 42.6005 140.153 42.6005L140.168 42.6283Z" fill="white"/>
<path d="M75.3384 54.2375C78.2839 54.2375 81.2294 54.2375 84.1749 54.2375C84.5207 54.2375 84.8664 54.2236 85.1983 54.2515C86.3461 54.3768 87.0928 55.1145 87.1204 56.1307C87.1482 57.1887 86.3599 57.982 85.143 58.0935C84.8111 58.1213 84.4653 58.0935 84.1197 58.0935C78.2702 58.0935 72.4207 58.0935 66.5849 58.0935C66.2807 58.0935 65.9903 58.1073 65.686 58.0935C64.3723 58.0099 63.5564 57.2443 63.5841 56.1307C63.5979 55.0171 64.4276 54.2933 65.7551 54.2237C66.1009 54.2097 66.4328 54.2237 66.7784 54.2237C69.641 54.2237 72.5035 54.2237 75.3523 54.2237L75.3384 54.2375Z" fill="white"/>
<path d="M140.084 58.1211C137.056 58.1211 134.028 58.1211 130.999 58.1211C130.487 58.1211 129.976 58.1213 129.491 57.8845C128.731 57.5366 128.399 56.8962 128.426 56.1307C128.44 55.4207 128.772 54.8082 129.478 54.4881C129.962 54.2653 130.46 54.2514 130.985 54.2514C137.125 54.2514 143.279 54.2514 149.419 54.2514C149.543 54.2514 149.682 54.2514 149.806 54.2514C151.133 54.3349 151.949 55.0728 151.963 56.1724C151.963 57.286 151.147 58.0795 149.834 58.1073C147.662 58.1491 145.477 58.1073 143.306 58.1073C142.241 58.1073 141.176 58.1073 140.112 58.1073L140.084 58.1211Z" fill="white"/>
<path d="M75.3384 27.9148C72.3929 27.9148 69.4474 27.9148 66.5019 27.9148C66.1977 27.9148 65.9073 27.9287 65.603 27.9148C64.3723 27.8174 63.5841 27.0796 63.5703 26.0078C63.5564 24.9498 64.3446 24.1564 65.5615 24.0589C66.1147 24.0172 66.6678 24.0589 67.221 24.0589C72.7248 24.0589 78.2424 24.0589 83.7463 24.0589C84.009 24.0589 84.2579 24.0589 84.5207 24.0589C86.1525 24.0868 87.079 24.7688 87.0928 25.966C87.1067 27.1631 86.1801 27.9009 84.5622 27.9148C83.2346 27.9287 81.9209 27.9148 80.5934 27.9148C78.8371 27.9148 77.0947 27.9148 75.3384 27.9148Z" fill="white"/>
<path d="M162.721 26.133C162.708 27.2188 161.823 28.1654 160.813 28.1654C159.763 28.1654 158.85 27.1492 158.891 26.0217C158.933 24.922 159.846 24.0172 160.869 24.0589C161.892 24.1007 162.735 25.0473 162.721 26.133Z" fill="white"/>
<path d="M57.6514 55.8105C57.679 56.8962 56.8355 57.8707 55.8261 57.9264C54.7612 57.982 53.8209 57.0216 53.8209 55.8662C53.8209 54.7804 54.6921 53.8339 55.7016 53.8199C56.7111 53.8061 57.6099 54.7247 57.6376 55.8105H57.6514Z" fill="white"/>
<path d="M119.023 39.0786C120.946 36.2529 120.877 32.9399 119.978 29.8079C118.982 26.3418 115.663 24.1703 113.008 24.0868C107.933 23.9337 102.858 24.045 97.7687 24.0589C97.3538 24.0589 96.9113 24.1286 96.5242 24.2538C95.7359 24.5044 95.3764 25.1726 95.3625 25.9382C95.3625 26.7594 95.7359 27.4137 96.5656 27.7339C97.0635 27.9287 97.5751 27.9148 98.0867 27.9148C102.733 27.9148 107.393 27.9287 112.04 27.9009C112.939 27.9009 113.685 28.1654 114.432 28.6108C116.95 30.1003 117.488 33.7612 116.064 36.5035C115.234 38.0764 114.169 39.0091 112.164 38.8141C109.924 38.5915 107.642 38.7585 105.388 38.7585C102.83 38.7585 100.272 38.7585 97.7134 38.7585C95.7359 38.7585 95.086 39.3988 95.086 41.3616C95.086 45.9551 95.086 50.5626 95.086 55.1563C95.086 57.3278 95.8604 58.1073 98.0315 58.1073C102.346 58.1073 106.647 58.0377 110.961 58.1351C115.221 58.2326 119.964 54.9753 120.379 50.0059C120.599 47.375 120.697 44.6745 119.092 42.4473C118.152 41.1528 118.139 40.4428 119.051 39.0786H119.023ZM116.12 51.3143C115.041 53.3745 113.119 54.2237 110.837 54.2375C107.214 54.2655 103.591 54.2236 99.9675 54.2653C99.1654 54.2653 98.8612 54.0983 98.875 53.2214C98.9303 50.0476 98.9303 46.8739 98.875 43.6862C98.875 42.8371 99.11 42.5865 99.9398 42.6143C101.945 42.67 103.95 42.6283 106.37 42.6283C108.278 42.5168 110.629 42.6839 112.966 42.5447C114.335 42.4612 115.262 43.5888 115.912 44.7024C117.17 46.8461 117.239 49.1429 116.091 51.3143H116.12Z" fill="white"/>
<path d="M0.24006 75.7999L4.00531 66.4602H4.6729L8.59837 75.7999H7.73049L6.66234 73.2381H2.09598L1.08123 75.7999H0.24006ZM2.37637 72.5176H6.3686L4.3124 67.6077L2.37637 72.5176Z" fill="white"/>
<path d="M23.9278 75.7999V66.4602H27.1991C27.7955 66.4602 28.3095 66.5714 28.7412 66.7938C29.1774 67.0162 29.5112 67.3297 29.7426 67.7344C29.9785 68.1347 30.0964 68.6039 30.0964 69.142C30.0964 69.6135 29.9852 70.0315 29.7626 70.3962C29.5446 70.7565 29.2308 71.05 28.8213 71.2768C28.4163 71.4992 27.9334 71.6371 27.3726 71.6904L30.497 75.7999H29.509L26.4247 71.7038H24.7023V75.7999H23.9278ZM24.7023 70.9833H26.9721C27.7153 70.9833 28.2917 70.8187 28.7012 70.4896C29.1151 70.1561 29.322 69.7069 29.322 69.142C29.322 68.555 29.144 68.0813 28.788 67.7211C28.4319 67.3608 27.88 67.1807 27.1323 67.1807H24.7023V70.9833Z" fill="white"/>
<path d="M50.2957 76C49.3299 76 48.4888 75.7976 47.7722 75.3929C47.0601 74.9838 46.5082 74.4123 46.1166 73.6784C45.7249 72.9446 45.5291 72.0907 45.5291 71.1167C45.5291 70.414 45.6448 69.7691 45.8762 69.1821C46.1121 68.5905 46.4437 68.0769 46.871 67.641C47.2982 67.2007 47.8011 66.8605 48.3797 66.6203C48.9628 66.3802 49.6014 66.2601 50.2957 66.2601C50.9366 66.2601 51.5107 66.3401 52.0181 66.5002C52.5299 66.6604 52.9617 66.8872 53.3133 67.1807L52.8593 67.8078C52.5344 67.5321 52.1628 67.3275 51.7444 67.194C51.326 67.0606 50.8654 66.9939 50.3625 66.9939C49.7572 66.9939 49.2053 67.0895 48.7068 67.2808C48.2128 67.472 47.7878 67.7478 47.4317 68.108C47.0801 68.4638 46.8086 68.8952 46.6173 69.4022C46.4259 69.9092 46.3302 70.4807 46.3302 71.1167C46.3302 71.9928 46.4993 72.74 46.8376 73.3582C47.1758 73.972 47.6543 74.4412 48.2729 74.7658C48.8915 75.0905 49.6192 75.2528 50.4559 75.2528C50.9767 75.2528 51.4685 75.1772 51.9313 75.026C52.3987 74.8703 52.8326 74.6168 53.2331 74.2655L53.607 74.9326C53.1352 75.3062 52.6234 75.5775 52.0715 75.7465C51.5241 75.9155 50.9322 76 50.2957 76Z" fill="white"/>
<path d="M69.1659 75.7999V66.4602H69.9403V70.4229H75.3077V66.4602H76.0822V75.7999H75.3077V71.1434H69.9403V75.7999H69.1659Z" fill="white"/>
<path d="M92.502 75.7999V66.4602H93.2764V75.7999H92.502Z" fill="white"/>
<path d="M111.593 75.7999V67.1807H108.829V66.4602H115.131V67.1807H112.367V75.7999H111.593Z" fill="white"/>
<path d="M130.686 75.7999V66.4602H136.187V67.1807H131.46V70.4896H135.653V71.2101H131.46V75.0794H136.227V75.7999H130.686Z" fill="white"/>
<path d="M156.493 76C155.527 76 154.686 75.7976 153.97 75.3929C153.258 74.9838 152.706 74.4123 152.314 73.6784C151.922 72.9446 151.727 72.0907 151.727 71.1167C151.727 70.414 151.842 69.7691 152.074 69.1821C152.31 68.5905 152.641 68.0769 153.068 67.641C153.496 67.2007 153.999 66.8605 154.577 66.6203C155.16 66.3802 155.799 66.2601 156.493 66.2601C157.134 66.2601 157.708 66.3401 158.216 66.5002C158.727 66.6604 159.159 66.8872 159.511 67.1807L159.057 67.8078C158.732 67.5321 158.36 67.3275 157.942 67.194C157.523 67.0606 157.063 66.9939 156.56 66.9939C155.955 66.9939 155.403 67.0895 154.904 67.2808C154.41 67.472 153.985 67.7478 153.629 68.108C153.278 68.4638 153.006 68.8952 152.815 69.4022C152.623 69.9092 152.528 70.4807 152.528 71.1167C152.528 71.9928 152.697 72.74 153.035 73.3582C153.373 73.972 153.852 74.4412 154.47 74.7658C155.089 75.0905 155.817 75.2528 156.653 75.2528C157.174 75.2528 157.666 75.1772 158.129 75.026C158.596 74.8703 159.03 74.6168 159.431 74.2655L159.804 74.9326C159.333 75.3062 158.821 75.5775 158.269 75.7465C157.722 75.9155 157.13 76 156.493 76Z" fill="white"/>
<path d="M177.259 75.7999V67.1807H174.495V66.4602H180.798V67.1807H178.034V75.7999H177.259Z" fill="white"/>
</svg>
