<svg width="115" height="29" viewBox="0 0 115 29" fill="none" xmlns="http://www.w3.org/2000/svg">
<g clip-path="url(#clip0_10141_692)">
<path d="M114.86 18.6752H105.43V17.0771H114.86V18.6752Z" fill="#F9F9F9"/>
<path d="M114.86 9.1228V10.7066H114.019C114.671 11.2727 115 12.0252 115 12.9711C115 13.6662 114.811 14.2539 114.44 14.734C114.061 15.2142 113.543 15.4578 112.871 15.4578C112.136 15.4578 111.583 15.1998 111.205 14.6767C110.827 14.1535 110.638 13.4728 110.638 12.6271C110.638 11.9463 110.736 11.3014 110.925 10.6994H110.799C110.323 10.6994 109.966 10.8499 109.714 11.1437C109.462 11.4375 109.336 11.8675 109.336 12.4193C109.336 13.0571 109.476 13.7164 109.763 14.4187L108.51 14.8558C108.132 13.9887 107.942 13.1073 107.942 12.1971C107.942 11.1867 108.195 10.4199 108.692 9.90393C109.189 9.38795 109.903 9.12997 110.82 9.12997H114.867L114.86 9.1228ZM112.395 10.6707H112.01C111.828 11.1437 111.737 11.6812 111.737 12.2688C111.737 12.7705 111.835 13.1646 112.024 13.4441C112.213 13.7236 112.479 13.8669 112.822 13.8669C113.13 13.8669 113.375 13.7379 113.557 13.4799C113.739 13.2219 113.83 12.8994 113.83 12.5125C113.83 11.975 113.697 11.5307 113.431 11.1867C113.165 10.8355 112.822 10.6636 112.395 10.6636V10.6707Z" fill="#F9F9F9"/>
<path d="M115 3.25349C115 4.21379 114.601 5.00207 113.796 5.61837H114.853V7.21646H105.423V5.61837H109.169C108.314 5.00207 107.887 4.21379 107.887 3.25349C107.887 2.37205 108.209 1.61242 108.854 0.96745C109.498 0.322483 110.366 0 111.458 0C112.55 0 113.397 0.322483 114.034 0.96745C114.678 1.61242 115 2.37205 115 3.25349ZM113.642 3.62614C113.642 3.06001 113.439 2.58704 113.033 2.20722C112.627 1.82024 112.095 1.63391 111.43 1.63391C110.765 1.63391 110.261 1.82741 109.855 2.21439C109.449 2.60137 109.246 3.07434 109.246 3.62614C109.246 4.17794 109.456 4.6581 109.869 5.05941C110.282 5.46072 110.814 5.66138 111.458 5.66138C112.102 5.66138 112.62 5.46072 113.026 5.05941C113.432 4.6581 113.642 4.17794 113.642 3.62614Z" fill="#F9F9F9"/>
<path d="M0 27.9986V23.5841H0.756118V24.1503C1.05016 23.7274 1.42122 23.5125 1.8763 23.5125C2.29637 23.5125 2.65342 23.6701 2.96147 23.9927C3.26952 24.3079 3.41653 24.7451 3.41653 25.2825C3.41653 25.82 3.26252 26.2429 2.96147 26.5653C2.66042 26.8805 2.29637 27.0455 1.8763 27.0455C1.42122 27.0455 1.05016 26.8447 0.756118 26.4507V28.0057H0V27.9986ZM1.70127 26.3719C1.9673 26.3719 2.19135 26.2715 2.37337 26.0708C2.5554 25.8702 2.64642 25.6051 2.64642 25.2753C2.64642 24.9457 2.5554 24.695 2.37337 24.4942C2.19135 24.2936 1.9673 24.1933 1.70127 24.1933C1.43523 24.1933 1.21119 24.2936 1.02216 24.5014C0.83313 24.7093 0.735115 24.9672 0.735115 25.2896C0.735115 25.6122 0.83313 25.863 1.02216 26.0708C1.21119 26.2715 1.44223 26.379 1.70127 26.379V26.3719Z" fill="#F9F9F9"/>
<path d="M7.60291 26.9668H6.8538V26.5511C6.58775 26.8737 6.2307 27.0385 5.78263 27.0385C5.45358 27.0385 5.17353 26.9453 4.9495 26.7591C4.72546 26.5726 4.60645 26.3147 4.60645 25.9779C4.60645 25.6124 4.73246 25.3401 4.9775 25.1538C5.22255 24.9674 5.5446 24.8742 5.95065 24.8742C6.2727 24.8742 6.58075 24.9244 6.8678 25.0175V24.953C6.8678 24.7166 6.79778 24.5375 6.65776 24.4157C6.51775 24.2937 6.31471 24.2292 6.05566 24.2292C5.75463 24.2292 5.43958 24.3009 5.11053 24.4444L4.9075 23.8209C5.31355 23.6346 5.73361 23.5413 6.16768 23.5413C6.65076 23.5413 7.00781 23.6632 7.25286 23.914C7.4979 24.1648 7.61691 24.516 7.61691 24.9745V26.9812L7.60291 26.9668ZM6.8678 25.7413V25.5479C6.64376 25.4547 6.39173 25.4118 6.11168 25.4118C5.87365 25.4118 5.68461 25.4619 5.5516 25.5551C5.41856 25.6482 5.34856 25.7843 5.34856 25.9493C5.34856 26.0997 5.41156 26.2215 5.53058 26.3147C5.64961 26.4078 5.80363 26.4508 5.98566 26.4508C6.2377 26.4508 6.44773 26.3863 6.61576 26.2502C6.78378 26.1212 6.8608 25.9493 6.8608 25.7342L6.8678 25.7413Z" fill="#F9F9F9"/>
<path d="M10.2569 27.0455C9.68977 27.0455 9.20668 26.8734 8.80762 26.5295L9.16468 26.0134C9.47273 26.2859 9.82278 26.4148 10.2079 26.4148C10.3829 26.4148 10.5299 26.3719 10.6489 26.2859C10.7679 26.1999 10.8309 26.0851 10.8309 25.949C10.8309 25.82 10.7749 25.7197 10.6559 25.6409C10.5369 25.5621 10.3759 25.5262 10.1588 25.5262H9.75277V24.9672H10.1588C10.3339 24.9672 10.4739 24.9242 10.5789 24.8454C10.6839 24.7666 10.7399 24.6591 10.7399 24.53C10.7399 24.4154 10.6909 24.3222 10.5859 24.2506C10.4809 24.1789 10.3549 24.1431 10.1938 24.1431C9.82278 24.1431 9.51473 24.2578 9.2557 24.487L8.91963 23.9998C9.2837 23.6772 9.73177 23.5125 10.2639 23.5125C10.6279 23.5125 10.922 23.5984 11.153 23.7704C11.384 23.9425 11.4961 24.1574 11.4961 24.4225C11.4961 24.7809 11.321 25.0389 10.978 25.1893C11.377 25.3326 11.58 25.6051 11.58 26.0134C11.58 26.3074 11.454 26.551 11.209 26.7516C10.964 26.9524 10.6419 27.0527 10.2499 27.0527L10.2569 27.0455Z" fill="#F9F9F9"/>
<path d="M13.001 27.9986V23.5841H13.7571V24.1503C14.0511 23.7274 14.4222 23.5125 14.8773 23.5125C15.2973 23.5125 15.6544 23.6701 15.9624 23.9927C16.2705 24.3079 16.4175 24.7451 16.4175 25.2825C16.4175 25.82 16.2635 26.2429 15.9624 26.5653C15.6614 26.8805 15.2973 27.0455 14.8773 27.0455C14.4222 27.0455 14.0511 26.8447 13.7571 26.4507V28.0057H13.001V27.9986ZM14.7022 26.3719C14.9683 26.3719 15.1923 26.2715 15.3743 26.0708C15.5564 25.8702 15.6474 25.6051 15.6474 25.2753C15.6474 24.9457 15.5564 24.695 15.3743 24.4942C15.1923 24.2936 14.9683 24.1933 14.7022 24.1933C14.4362 24.1933 14.2122 24.2936 14.0231 24.5014C13.8341 24.7093 13.7361 24.9672 13.7361 25.2896C13.7361 25.6122 13.8341 25.863 14.0231 26.0708C14.2122 26.2715 14.4432 26.379 14.7022 26.379V26.3719Z" fill="#F9F9F9"/>
<path d="M20.6039 26.9668H19.8548V26.5511C19.5888 26.8737 19.2318 27.0385 18.7836 27.0385C18.4546 27.0385 18.1746 26.9453 17.9506 26.7591C17.7264 26.5726 17.6074 26.3147 17.6074 25.9779C17.6074 25.6124 17.7334 25.3401 17.9786 25.1538C18.2236 24.9674 18.5456 24.8742 18.9518 24.8742C19.2738 24.8742 19.5818 24.9244 19.8688 25.0175V24.953C19.8688 24.7166 19.7988 24.5375 19.6588 24.4157C19.5188 24.2937 19.3158 24.2292 19.0568 24.2292C18.7556 24.2292 18.4406 24.3009 18.1116 24.4444L17.9086 23.8209C18.3146 23.6346 18.7346 23.5413 19.1688 23.5413C19.6518 23.5413 20.0089 23.6632 20.2539 23.914C20.4989 24.1648 20.6179 24.516 20.6179 24.9745V26.9812L20.6039 26.9668ZM19.8688 25.7413V25.5479C19.6448 25.4547 19.3928 25.4118 19.1128 25.4118C18.8748 25.4118 18.6856 25.4619 18.5526 25.5551C18.4196 25.6482 18.3496 25.7843 18.3496 25.9493C18.3496 26.0997 18.4126 26.2215 18.5316 26.3147C18.6506 26.4078 18.8046 26.4508 18.9868 26.4508C19.2388 26.4508 19.4488 26.3863 19.6168 26.2502C19.7848 26.1212 19.8618 25.9493 19.8618 25.7342L19.8688 25.7413Z" fill="#F9F9F9"/>
<path d="M23.7334 27.0457C23.2014 27.0457 22.7814 26.8736 22.4802 26.5297C22.1792 26.1856 22.0322 25.6984 22.0322 25.0749C22.0322 24.8743 22.0322 24.695 22.0462 24.5446C22.0532 24.3941 22.0742 24.2293 22.1092 24.0502C22.1372 23.8709 22.1862 23.7205 22.2422 23.5843C22.3052 23.4554 22.3822 23.3264 22.4732 23.2046C22.5642 23.0826 22.6902 22.9823 22.8374 22.8963C22.9844 22.8104 23.1594 22.7531 23.3554 22.7101L25.1617 22.323L25.2877 22.9465L23.4814 23.3479C23.1804 23.4124 22.9634 23.527 22.8374 23.6918C22.7042 23.8566 22.6342 24.0645 22.6132 24.3081C22.7112 24.1362 22.8724 23.9857 23.0894 23.8638C23.3064 23.7348 23.5724 23.6775 23.8876 23.6775C24.3146 23.6775 24.6856 23.8351 25.0007 24.1577C25.3087 24.4729 25.4697 24.8672 25.4697 25.3257C25.4697 25.7844 25.3087 26.2071 24.9797 26.544C24.6506 26.8808 24.2446 27.0529 23.7474 27.0529L23.7334 27.0457ZM23.7474 26.3721C24.0276 26.3721 24.2586 26.2718 24.4336 26.071C24.6086 25.8704 24.6996 25.6268 24.6996 25.3329C24.6996 25.0391 24.6086 24.7955 24.4196 24.5947C24.2306 24.3941 24.0066 24.2938 23.7334 24.2938C23.4604 24.2938 23.2294 24.3941 23.0544 24.5947C22.8794 24.7955 22.7884 25.0463 22.7884 25.34C22.7884 25.6339 22.8794 25.8775 23.0614 26.0782C23.2434 26.2789 23.4744 26.3792 23.7404 26.3792L23.7474 26.3721Z" fill="#F9F9F9"/>
<path d="M28.4312 27.0457C27.927 27.0457 27.514 26.8737 27.178 26.5296C26.8418 26.1857 26.6738 25.77 26.6738 25.2756C26.6738 24.7811 26.8418 24.3655 27.178 24.0215C27.514 23.6776 27.934 23.5056 28.4382 23.5056C28.9422 23.5056 29.3553 23.6776 29.6913 24.0215C30.0273 24.3655 30.1953 24.7811 30.1953 25.2756C30.1953 25.77 30.0273 26.1786 29.6913 26.5225C29.3553 26.8665 28.9282 27.0385 28.4242 27.0385L28.4312 27.0457ZM28.4452 26.372C28.7462 26.372 28.9912 26.2645 29.1733 26.0568C29.3553 25.849 29.4463 25.5909 29.4463 25.2828C29.4463 24.9745 29.3483 24.7238 29.1593 24.5088C28.9702 24.3011 28.7252 24.1934 28.4312 24.1934C28.1372 24.1934 27.892 24.3011 27.71 24.5088C27.528 24.7166 27.437 24.9745 27.437 25.2828C27.437 25.5909 27.535 25.8418 27.724 26.0496C27.913 26.2645 28.1582 26.372 28.4452 26.372Z" fill="#F9F9F9"/>
<path d="M32.1843 26.9667V24.2434H31.1201V23.5769H34.0116V24.2434H32.9474V26.9667H32.1843Z" fill="#F9F9F9"/>
<path d="M35.2363 26.9667V23.5769H35.9855V25.1966L37.4277 23.5769H38.3168L37.0357 25.003L38.4288 26.9667H37.5327L36.5315 25.5692L35.9925 26.1497V26.9667H35.2433H35.2363Z" fill="#F9F9F9"/>
<path d="M42.2307 26.9668H41.4817V26.5511C41.2157 26.8737 40.8585 27.0385 40.4105 27.0385C40.0814 27.0385 39.8014 26.9453 39.5774 26.7591C39.3534 26.5726 39.2344 26.3147 39.2344 25.9779C39.2344 25.6124 39.3604 25.3401 39.6054 25.1538C39.8504 24.9674 40.1725 24.8742 40.5785 24.8742C40.9005 24.8742 41.2087 24.9244 41.4957 25.0175V24.953C41.4957 24.7166 41.4257 24.5375 41.2857 24.4157C41.1455 24.2937 40.9425 24.2292 40.6835 24.2292C40.3825 24.2292 40.0674 24.3009 39.7384 24.4444L39.5354 23.8209C39.9414 23.6346 40.3615 23.5413 40.7955 23.5413C41.2787 23.5413 41.6357 23.6632 41.8807 23.914C42.1257 24.1648 42.2447 24.516 42.2447 24.9745V26.9812L42.2307 26.9668ZM41.4957 25.7413V25.5479C41.2717 25.4547 41.0195 25.4118 40.7395 25.4118C40.5015 25.4118 40.3125 25.4619 40.1795 25.5551C40.0464 25.6482 39.9764 25.7843 39.9764 25.9493C39.9764 26.0997 40.0394 26.2215 40.1585 26.3147C40.2775 26.4078 40.4315 26.4508 40.6135 26.4508C40.8655 26.4508 41.0755 26.3863 41.2437 26.2502C41.4117 26.1212 41.4887 25.9493 41.4887 25.7342L41.4957 25.7413Z" fill="#F9F9F9"/>
<path d="M47.7961 27.0455C47.3061 27.0455 46.8999 26.8734 46.5779 26.5366C46.2559 26.1999 46.0879 25.7842 46.0879 25.2968V25.2825C46.0879 24.7953 46.2489 24.3796 46.5779 24.0356C46.9069 23.6916 47.3131 23.5125 47.8031 23.5125C48.3352 23.5125 48.7762 23.7059 49.1262 24.1001L48.6572 24.616C48.3912 24.3366 48.1111 24.1933 47.7961 24.1933C47.5231 24.1933 47.2991 24.3007 47.1171 24.5085C46.9349 24.7165 46.8439 24.9744 46.8439 25.2681V25.2825C46.8439 25.5907 46.9349 25.8487 47.1239 26.0564C47.3131 26.2644 47.5441 26.3719 47.8381 26.3719C48.1461 26.3719 48.4262 26.2286 48.6992 25.949L49.1542 26.4077C48.9722 26.6155 48.7762 26.7731 48.5662 26.8805C48.3562 26.9882 48.0971 27.0455 47.7961 27.0455Z" fill="#F9F9F9"/>
<path d="M53.2152 26.9668H52.4661V26.5511C52.2001 26.8737 51.8429 27.0385 51.3949 27.0385C51.0659 27.0385 50.7857 26.9453 50.5617 26.7591C50.3377 26.5726 50.2188 26.3147 50.2188 25.9779C50.2188 25.6124 50.3448 25.3401 50.5898 25.1538C50.8348 24.9674 51.1569 24.8742 51.5629 24.8742C51.8849 24.8742 52.1931 24.9244 52.4801 25.0175V24.953C52.4801 24.7166 52.4101 24.5375 52.2701 24.4157C52.1301 24.2937 51.9269 24.2292 51.6679 24.2292C51.3669 24.2292 51.0519 24.3009 50.7228 24.4444L50.5197 23.8209C50.9259 23.6346 51.3459 23.5413 51.7799 23.5413C52.2631 23.5413 52.6201 23.6632 52.8651 23.914C53.1103 24.1648 53.2292 24.516 53.2292 24.9745V26.9812L53.2152 26.9668ZM52.4801 25.7413V25.5479C52.2561 25.4547 52.0041 25.4118 51.7239 25.4118C51.4859 25.4118 51.2969 25.4619 51.1639 25.5551C51.0309 25.6482 50.9609 25.7843 50.9609 25.9493C50.9609 26.0997 51.0239 26.2215 51.1429 26.3147C51.2619 26.4078 51.4159 26.4508 51.5979 26.4508C51.8499 26.4508 52.0601 26.3863 52.2281 26.2502C52.3961 26.1212 52.4731 25.9493 52.4731 25.7342L52.4801 25.7413Z" fill="#F9F9F9"/>
<path d="M54.7412 26.9665V23.5769H55.4834V25.8486C56.1764 24.8381 56.7015 24.0858 57.0515 23.5769H57.7657V26.9665H57.0305V24.7091L55.4554 26.9665H54.7412ZM56.9115 22.9462C56.7365 23.1039 56.5195 23.1898 56.2535 23.1898C55.9874 23.1898 55.7704 23.111 55.5954 22.9462C55.4204 22.7814 55.3084 22.5665 55.2664 22.2941L55.7284 22.2009C55.8194 22.4947 55.9874 22.6381 56.2464 22.6381C56.5055 22.6381 56.6805 22.4947 56.7645 22.2009L57.2195 22.2941C57.1775 22.5665 57.0725 22.7886 56.8975 22.9462H56.9115Z" fill="#F9F9F9"/>
<path d="M60.0554 26.9667V24.2434H58.9912V23.5769H61.8827V24.2434H60.8185V26.9667H60.0554Z" fill="#F9F9F9"/>
<path d="M64.557 27.0457C64.053 27.0457 63.6398 26.8737 63.3038 26.5296C62.9678 26.1857 62.7998 25.77 62.7998 25.2756C62.7998 24.7811 62.9678 24.3655 63.3038 24.0215C63.6398 23.6776 64.06 23.5056 64.564 23.5056C65.0681 23.5056 65.4811 23.6776 65.8173 24.0215C66.1533 24.3655 66.3213 24.7811 66.3213 25.2756C66.3213 25.77 66.1533 26.1786 65.8173 26.5225C65.4811 26.8665 65.0541 27.0385 64.55 27.0385L64.557 27.0457ZM64.571 26.372C64.8721 26.372 65.1171 26.2645 65.2991 26.0568C65.4811 25.849 65.5721 25.5909 65.5721 25.2828C65.5721 24.9745 65.4741 24.7238 65.2851 24.5088C65.0961 24.3011 64.8511 24.1934 64.557 24.1934C64.263 24.1934 64.018 24.3011 63.836 24.5088C63.654 24.7166 63.5628 24.9745 63.5628 25.2828C63.5628 25.5909 63.661 25.8418 63.85 26.0496C64.039 26.2645 64.284 26.372 64.571 26.372Z" fill="#F9F9F9"/>
<path d="M67.7285 26.9667V23.5769H69.4299C69.7589 23.5769 70.025 23.6559 70.221 23.8063C70.417 23.9568 70.515 24.1646 70.515 24.4227C70.515 24.7738 70.34 25.0388 69.983 25.1966C70.438 25.3328 70.669 25.6122 70.669 26.0422C70.669 26.3288 70.557 26.5509 70.34 26.7159C70.123 26.8807 69.8219 26.9595 69.4509 26.9595H67.7355L67.7285 26.9667ZM68.4707 24.9815H69.2478C69.4018 24.9815 69.5209 24.9457 69.6119 24.8669C69.7029 24.7881 69.7449 24.6878 69.7449 24.566C69.7449 24.4513 69.7029 24.358 69.6259 24.2864C69.5489 24.2147 69.4228 24.1789 69.2618 24.1789H68.4707V24.9815ZM68.4707 26.3575H69.3318C69.5138 26.3575 69.6539 26.3217 69.7519 26.2357C69.8499 26.1569 69.8988 26.0494 69.8988 25.9203C69.8988 25.7913 69.8499 25.691 69.7449 25.6194C69.6399 25.5477 69.4928 25.5119 69.2968 25.5119H68.4777V26.3575H68.4707Z" fill="#F9F9F9"/>
<path d="M71.999 26.9666V26.0852H72.8322V26.9666H71.999Z" fill="#F9F9F9"/>
<path d="M76.8722 26.9667V23.5769H77.6214L78.6576 25.1463L79.7007 23.5769H80.4499V26.9667H79.6867V24.7093L78.6436 26.2285L77.6074 24.7236V26.9667H76.8652H76.8722Z" fill="#F9F9F9"/>
<path d="M84.8039 26.9668H84.055V26.5511C83.7888 26.8737 83.4318 27.0385 82.9838 27.0385C82.6546 27.0385 82.3746 26.9453 82.1506 26.7591C81.9266 26.5726 81.8076 26.3147 81.8076 25.9779C81.8076 25.6124 81.9336 25.3401 82.1786 25.1538C82.4236 24.9674 82.7456 24.8742 83.1518 24.8742C83.4738 24.8742 83.7818 24.9244 84.069 25.0175V24.953C84.069 24.7166 83.9989 24.5375 83.8588 24.4157C83.7188 24.2937 83.5158 24.2292 83.2568 24.2292C82.9558 24.2292 82.6406 24.3009 82.3116 24.4444L82.1086 23.8209C82.5146 23.6346 82.9348 23.5413 83.3688 23.5413C83.8518 23.5413 84.2089 23.6632 84.4539 23.914C84.6989 24.1648 84.8179 24.516 84.8179 24.9745V26.9812L84.8039 26.9668ZM84.069 25.7413V25.5479C83.8448 25.4547 83.5928 25.4118 83.3128 25.4118C83.0748 25.4118 82.8858 25.4619 82.7526 25.5551C82.6196 25.6482 82.5496 25.7843 82.5496 25.9493C82.5496 26.0997 82.6126 26.2215 82.7316 26.3147C82.8508 26.4078 83.0048 26.4508 83.1868 26.4508C83.4388 26.4508 83.6488 26.3863 83.8168 26.2502C83.9849 26.1212 84.062 25.9493 84.062 25.7342L84.069 25.7413Z" fill="#F9F9F9"/>
<path d="M86.3301 27.9986V23.5841H87.0862V24.1503C87.3802 23.7274 87.7514 23.5125 88.2064 23.5125C88.6266 23.5125 88.9836 23.6701 89.2916 23.9927C89.5996 24.3079 89.7467 24.7451 89.7467 25.2825C89.7467 25.82 89.5926 26.2429 89.2916 26.5653C88.9906 26.8805 88.6266 27.0455 88.2064 27.0455C87.7514 27.0455 87.3802 26.8447 87.0862 26.4507V28.0057H86.3301V27.9986ZM88.0314 26.3719C88.2974 26.3719 88.5214 26.2715 88.7036 26.0708C88.8856 25.8702 88.9766 25.6051 88.9766 25.2753C88.9766 24.9457 88.8856 24.695 88.7036 24.4942C88.5214 24.2936 88.2974 24.1933 88.0314 24.1933C87.7654 24.1933 87.5414 24.2936 87.3522 24.5014C87.1632 24.7093 87.0652 24.9672 87.0652 25.2896C87.0652 25.6122 87.1632 25.863 87.3522 26.0708C87.5414 26.2715 87.7724 26.379 88.0314 26.379V26.3719Z" fill="#F9F9F9"/>
<path d="M91.1543 26.9667V23.5769H91.9033V25.1966L93.3456 23.5769H94.2348L92.9535 25.003L94.3468 26.9667H93.4506L92.4495 25.5692L91.9103 26.1497V26.9667H91.1613H91.1543Z" fill="#F9F9F9"/>
<path d="M96.825 27.0455C96.342 27.0455 95.9359 26.8805 95.6139 26.551C95.2919 26.2214 95.1309 25.7985 95.1309 25.2753C95.1309 24.7809 95.2849 24.3652 95.5859 24.0285C95.8939 23.6844 96.279 23.5125 96.748 23.5125C97.2522 23.5125 97.6372 23.6844 97.9172 24.0356C98.1972 24.3867 98.3374 24.8168 98.3374 25.3326C98.3374 25.4259 98.3374 25.4976 98.3234 25.5477H95.8939C95.9359 25.82 96.0409 26.0278 96.2159 26.1782C96.391 26.3289 96.601 26.4077 96.846 26.4077C97.175 26.4077 97.4692 26.2715 97.7422 26.0063L98.1832 26.4077C97.8402 26.8304 97.3922 27.0455 96.832 27.0455H96.825ZM95.8799 25.0389H97.5812C97.5532 24.7809 97.4692 24.5658 97.3222 24.3939C97.175 24.2219 96.979 24.1431 96.741 24.1431C96.503 24.1431 96.321 24.2291 96.1669 24.3939C96.0129 24.5587 95.9219 24.7738 95.8869 25.0389H95.8799Z" fill="#F9F9F9"/>
<path d="M100.304 26.9667V24.2434H99.2402V23.5769H102.132V24.2434H101.068V26.9667H100.304Z" fill="#F9F9F9"/>
<path d="M103.364 26.9667V23.5769H104.106V25.8486C104.799 24.8382 105.325 24.0858 105.675 23.5769H106.389V26.9667H105.654V24.7093L104.078 26.9667H103.364Z" fill="#F9F9F9"/>
<path d="M107.964 26.9667V23.5769H108.72V24.9529H110.176V23.5769H110.932V26.9667H110.176V25.5979H108.72V26.9667H107.964Z" fill="#F9F9F9"/>
<path d="M112.515 26.9667V23.5769H114.86V24.2434H113.278V26.9667H112.522H112.515Z" fill="#F9F9F9"/>
<path d="M21.4937 0.0429688H16.7891V18.7829H30.2801V14.5547H21.4937V0.0429688Z" fill="#F9F9F9"/>
<path d="M57.7935 12.2472L53.2428 0.0429688H48.041L55.5182 18.8903H59.9918L67.497 0.0429688H62.3652L57.7935 12.2472Z" fill="#F9F9F9"/>
<path d="M98.3512 0.0429688V10.3481L90.3489 0.0429688H86.3232V18.7829H90.9511V8.42038L99.0582 18.7829H102.958V0.0429688H98.3512Z" fill="#F9F9F9"/>
<path d="M83.4465 0.0429688H69.5352V4.27109H83.4465V0.0429688Z" fill="#F9F9F9"/>
<path d="M73.6658 9.73187L69.5352 7.30249V11.5306H83.4465V7.30249H73.6658V9.73187Z" fill="#F9F9F9"/>
<path d="M73.6658 16.9838L69.5352 14.5544V18.7825H83.4465V14.5544H73.6658V16.9838Z" fill="#F9F9F9"/>
<path d="M0 0.0429688V4.27109V7.30243V11.5305V14.5547V18.7829H4.13065H14.3593V14.5547H4.13065V11.5305H14.3593V7.30243H4.13065V4.27109H14.3593V0.0429688H4.13065H0Z" fill="#F9F9F9"/>
<path d="M32.7158 0.0429688V4.27109V7.30243V11.5305V14.5547V18.7829H36.8465H46.627V14.5547H36.8465V11.5305H46.627V7.30243H36.8465V4.27109H46.627V0.0429688H36.8465H32.7158Z" fill="#F9F9F9"/>
</g>
<defs>
<clipPath id="clip0_10141_692">
<rect width="115" height="29" fill="white"/>
</clipPath>
</defs>
</svg>
