<svg width="258" height="73" viewBox="0 0 258 73" fill="none" xmlns="http://www.w3.org/2000/svg">
<path d="M223.991 34.0069C223.991 30.7436 223.991 27.48 223.991 24.2361C223.991 21.6761 224.946 20.7187 227.481 20.7187C233.447 20.7187 239.394 20.7187 245.358 20.7187C248.888 20.7187 251.15 19.0185 252.241 15.5792C253.021 13.0975 252.709 10.7134 251.462 8.4661C250.292 6.35562 248.655 5.20269 246.041 5.43718C243.897 5.65214 241.713 5.53489 239.549 5.43718C237.814 5.35902 236.605 4.16697 236.722 2.74044C236.839 1.11849 237.854 0.102334 239.413 0.121876C242.882 0.141417 246.353 -0.327614 249.844 0.454049C251.422 0.805796 252.651 1.58745 253.704 2.64269C259.981 8.91554 259.377 19.7416 251.909 24.6661C250.428 25.6432 248.829 26.1903 246.996 26.1708C241.753 26.1122 236.527 26.2098 231.282 26.1122C229.82 26.0926 229.353 26.4053 229.372 27.9687C229.47 33.4012 229.412 38.8337 229.412 44.2663C229.412 45.4779 229.119 46.5526 227.949 47.1583C227.013 47.6469 226.077 47.5883 225.22 47.002C224.186 46.3377 224.011 45.2824 224.011 44.149C224.011 40.7683 224.011 37.3877 224.011 34.0069H223.991Z" fill="white"/>
<path d="M61.9482 11.0296C59.6281 17.3024 57.3276 23.5557 55.0075 29.8285C53.136 34.9094 51.2643 40.0096 49.3732 45.0904C48.5543 47.2986 47.3262 48.0608 45.6495 47.4941C44.0313 46.9274 43.5634 45.5008 44.3822 43.2731C48.067 33.2092 51.7907 23.1453 55.495 13.0814C56.7233 9.73979 58.0099 6.43728 59.1798 3.07612C59.6866 1.63005 60.4859 0.516171 62.0456 0.496629C63.7029 0.496629 64.5803 1.68868 65.1065 3.13475C67.0172 8.39143 68.9474 13.6481 70.858 18.9243C72.5152 23.458 74.1723 27.972 75.7905 32.5057C76.2584 33.8149 76.4339 35.1243 75.2447 36.16C73.8214 37.391 71.7743 36.6876 70.975 34.5967C69.4347 30.5516 67.992 26.4479 66.5103 22.3832C65.1261 18.6116 63.7419 14.8401 62.3772 11.0686C62.2407 11.0686 62.1041 11.0491 61.9678 11.0296H61.9482Z" fill="white"/>
<path d="M34.1571 47.3147C33.0458 47.2365 32.2854 46.7481 31.681 45.8881C26.9629 39.2049 22.2253 32.5412 17.4879 25.8581C16.513 24.4706 16.4936 23.1028 17.4879 21.7153C22.2253 15.0516 26.9435 8.3684 31.7005 1.70474C32.7533 0.219572 34.3326 -0.151756 35.5999 0.688531C36.8475 1.52882 37.0426 3.30713 35.9508 4.87046C31.7979 10.772 27.6453 16.6736 23.4147 22.5361C22.7324 23.474 22.6933 24.0406 23.3952 25.0177C27.5868 30.8216 31.6811 36.6841 35.8338 42.5271C36.6331 43.6408 36.9256 44.8134 36.3407 46.064C35.9117 46.9824 35.0343 47.2561 34.1765 47.3147H34.1571Z" fill="white"/>
<path d="M5.4199 23.7864C5.4199 30.6065 5.4199 37.4265 5.4199 44.2465C5.4199 45.5167 5.08848 46.6305 3.80175 47.2168C2.74895 47.6858 1.77414 47.4904 0.935802 46.7673C0.0389778 45.9857 -2.88499e-10 44.8718 0 43.7579C2.04976e-09 35.8436 1.0401e-06 27.9489 1.04215e-06 20.0346C1.0435e-06 14.8365 1.72499e-06 9.65795 1.72634e-06 4.45989C1.72644e-06 4.08862 1.77432e-06 3.73687 1.77441e-06 3.36558C0.0584903 1.23555 1.09177 -0.0151554 2.76845 0.0239286C4.38662 0.0630111 5.38091 1.25508 5.4199 3.28739C5.4589 4.73347 5.4199 6.17954 5.4199 7.62562C5.4199 12.9996 5.4199 18.3734 5.4199 23.7474V23.7864Z" fill="white"/>
<path d="M198.003 0.0632359C202.155 0.0632359 206.288 0.063236 210.442 0.0632359C211.299 0.0632359 212.118 0.121824 212.917 0.454032C214.009 0.883945 214.457 1.82197 214.438 2.87723C214.419 3.87385 213.951 4.73366 212.917 5.1245C212.177 5.39807 211.416 5.51529 210.616 5.51529C202.019 5.51529 193.441 5.51529 184.844 5.51529C184.044 5.51529 183.283 5.4176 182.562 5.10493C181.549 4.67501 181.119 3.75656 181.119 2.77949C181.119 1.80241 181.549 0.883945 182.562 0.454032C183.342 0.121824 184.18 0.0436755 185.037 0.0436755C189.366 0.0436754 193.694 0.0436754 198.022 0.0436754L198.003 0.0632359Z" fill="white"/>
<path d="M106.216 26.1316C102.005 26.1316 97.7936 26.1316 93.5824 26.1316C93.095 26.1316 92.6075 26.1512 92.1395 26.0926C90.6189 25.8775 89.7416 24.9787 89.6246 23.474C89.5272 22.0669 90.6383 20.9336 92.2176 20.7381C92.744 20.6795 93.2898 20.6991 93.8358 20.6991C102.083 20.6991 110.33 20.6991 118.557 20.6991C119.044 20.6991 119.532 20.6796 120 20.6991C121.715 20.8555 122.827 21.9498 122.788 23.4349C122.768 24.9201 121.657 25.9753 119.922 26.112C119.376 26.1512 118.83 26.112 118.303 26.112C114.268 26.112 110.232 26.112 106.216 26.112V26.1316Z" fill="white"/>
<path d="M197.614 26.1512C193.402 26.1512 189.191 26.1512 184.98 26.1512C184.493 26.1512 184.005 26.1707 183.537 26.1122C182.017 25.8971 181.139 24.9983 181.022 23.4936C180.924 22.0865 182.036 20.9532 183.614 20.7577C184.142 20.6991 184.686 20.7187 185.233 20.7187C193.479 20.7187 201.727 20.7187 209.954 20.7187C210.442 20.7187 210.929 20.6991 211.397 20.7187C213.113 20.875 214.223 21.9693 214.185 23.4545C214.166 24.9592 213.054 25.9949 211.299 26.1122C210.754 26.1512 210.208 26.1122 209.68 26.1122C205.645 26.1122 201.61 26.1122 197.593 26.1122L197.614 26.1512Z" fill="white"/>
<path d="M106.215 42.4489C110.368 42.4489 114.52 42.4489 118.673 42.4489C119.16 42.4489 119.648 42.4293 120.116 42.4684C121.734 42.6443 122.787 43.68 122.826 45.1065C122.865 46.5918 121.753 47.7055 120.038 47.862C119.57 47.901 119.082 47.862 118.595 47.862C110.348 47.862 102.101 47.862 93.8738 47.862C93.4449 47.862 93.0355 47.8814 92.6065 47.862C90.7543 47.7447 89.6041 46.6698 89.6432 45.1065C89.6626 43.5432 90.8324 42.5271 92.7039 42.4294C93.1914 42.4098 93.6593 42.4294 94.1467 42.4294C98.1824 42.4294 102.218 42.4294 106.234 42.4294L106.215 42.4489Z" fill="white"/>
<path d="M197.495 47.9008C193.226 47.9008 188.957 47.9008 184.686 47.9008C183.965 47.9008 183.244 47.901 182.562 47.5687C181.49 47.0802 181.022 46.1812 181.06 45.1065C181.079 44.1098 181.547 43.25 182.542 42.8006C183.225 42.4879 183.927 42.4683 184.667 42.4683C193.324 42.4683 202 42.4683 210.656 42.4683C210.831 42.4683 211.027 42.4683 211.201 42.4683C213.073 42.5855 214.223 43.6214 214.243 45.1651C214.243 46.7285 213.092 47.8424 211.241 47.8814C208.179 47.94 205.099 47.8814 202.038 47.8814C200.537 47.8814 199.035 47.8814 197.535 47.8814L197.495 47.9008Z" fill="white"/>
<path d="M106.215 5.49578C102.062 5.49578 97.9094 5.49578 93.7568 5.49578C93.3279 5.49578 92.9185 5.51531 92.4895 5.49578C90.7544 5.35897 89.6432 4.32329 89.6236 2.81858C89.6041 1.33343 90.7154 0.219511 92.431 0.0827193C93.2109 0.0240956 93.9907 0.0827193 94.7707 0.0827193C102.53 0.0827193 110.309 0.0827193 118.069 0.0827193C118.439 0.0827193 118.79 0.0827193 119.16 0.0827193C121.461 0.121803 122.767 1.07933 122.787 2.75991C122.806 4.44048 121.5 5.47623 119.219 5.49578C117.347 5.51531 115.495 5.49578 113.623 5.49578C111.147 5.49578 108.691 5.49578 106.215 5.49578Z" fill="white"/>
<path d="M229.41 2.99446C229.391 4.5187 228.144 5.84752 226.72 5.84752C225.239 5.84752 223.952 4.42096 224.01 2.8381C224.069 1.29432 225.356 0.0241085 226.798 0.0827322C228.24 0.141357 229.429 1.47023 229.41 2.99446Z" fill="white"/>
<path d="M81.279 44.6571C81.318 46.1812 80.1288 47.5492 78.7056 47.6275C77.2044 47.7055 75.8786 46.3573 75.8786 44.7353C75.8786 43.211 77.107 41.8822 78.5301 41.8626C79.9533 41.8432 81.2205 43.1328 81.2596 44.6571H81.279Z" fill="white"/>
<path d="M167.803 21.1681C170.514 17.2012 170.416 12.5503 169.149 8.15342C167.745 3.28758 163.066 0.23912 159.323 0.121871C152.168 -0.0930875 145.012 0.063207 137.838 0.0827482C137.253 0.0827482 136.629 0.180485 136.083 0.356359C134.972 0.708108 134.465 1.64609 134.445 2.72088C134.445 3.87382 134.972 4.79228 136.142 5.24175C136.844 5.51532 137.565 5.49579 138.286 5.49579C144.837 5.49579 151.407 5.51532 157.958 5.47624C159.225 5.47624 160.277 5.84755 161.33 6.47287C164.88 8.56383 165.639 13.7032 163.631 17.553C162.462 19.761 160.96 21.0704 158.133 20.7967C154.975 20.4842 151.758 20.7187 148.58 20.7187C144.974 20.7187 141.367 20.7187 137.76 20.7187C134.972 20.7187 134.056 21.6175 134.056 24.373C134.056 30.8216 134.056 37.2898 134.056 43.7386C134.056 46.7871 135.147 47.8814 138.208 47.8814C144.291 47.8814 150.354 47.7837 156.437 47.9204C162.442 48.0573 169.13 43.4845 169.714 36.5083C170.025 32.8149 170.163 29.0238 167.9 25.8971C166.575 24.0798 166.556 23.0832 167.843 21.1681H167.803ZM163.71 38.3451C162.189 41.2373 159.479 42.4294 156.262 42.4488C151.154 42.488 146.046 42.4293 140.938 42.4879C139.807 42.4879 139.378 42.2534 139.397 41.0224C139.476 36.5669 139.476 32.1114 139.397 27.6363C139.397 26.4444 139.729 26.0926 140.899 26.1316C143.726 26.2098 146.553 26.1512 149.964 26.1512C152.655 25.9948 155.969 26.2293 159.264 26.034C161.194 25.9167 162.5 27.4996 163.417 29.063C165.191 32.0724 165.288 35.2967 163.67 38.3451H163.71Z" fill="white"/>
<path d="M0.338446 72.719L5.64682 59.6076H6.58803L12.1223 72.719H10.8987L9.39281 69.1228H2.95499L1.52436 72.719H0.338446ZM3.35029 68.1113H8.97868L6.07978 61.2184L3.35029 68.1113Z" fill="white"/>
<path d="M33.7343 72.719V59.6076H38.3462C39.187 59.6076 39.9118 59.7637 40.5204 60.0759C41.1353 60.3881 41.6059 60.8282 41.9322 61.3964C42.2648 61.9583 42.431 62.617 42.431 63.3725C42.431 64.0343 42.2742 64.6212 41.9604 65.1331C41.653 65.6389 41.2106 66.0509 40.6334 66.3694C40.0624 66.6815 39.3816 66.8751 38.5909 66.95L42.9958 72.719H41.6028L37.2544 66.9687H34.8261V72.719H33.7343ZM34.8261 65.9573H38.0262C39.0741 65.9573 39.8867 65.7263 40.4639 65.2643C41.0475 64.796 41.3393 64.1654 41.3393 63.3725C41.3393 62.5483 41.0883 61.8834 40.5863 61.3777C40.0843 60.8719 39.3063 60.6191 38.2521 60.6191H34.8261V65.9573Z" fill="white"/>
<path d="M70.9087 73C69.5471 73 68.3612 72.7159 67.351 72.1478C66.347 71.5733 65.569 70.771 65.0168 69.7409C64.4646 68.7107 64.1885 67.5119 64.1885 66.1446C64.1885 65.1581 64.3517 64.2528 64.678 63.4287C65.0105 62.5983 65.478 61.8771 66.0804 61.2653C66.6827 60.6472 67.3918 60.1695 68.2075 59.8324C69.0295 59.4952 69.9299 59.3267 70.9087 59.3267C71.8123 59.3267 72.6217 59.439 73.337 59.6638C74.0586 59.8886 74.6673 60.207 75.163 60.6191L74.5229 61.4994C74.0649 61.1123 73.5409 60.8251 72.9511 60.6378C72.3613 60.4505 71.7119 60.3568 71.0028 60.3568C70.1495 60.3568 69.3714 60.4911 68.6687 60.7595C67.9722 61.028 67.3729 61.4151 66.871 61.9208C66.3753 62.4203 65.9925 63.026 65.7227 63.7377C65.4529 64.4495 65.318 65.2518 65.318 66.1446C65.318 67.3746 65.5564 68.4235 66.0333 69.2913C66.5102 70.1529 67.1847 70.8116 68.0569 71.2674C68.9291 71.7232 69.955 71.9511 71.1346 71.9511C71.8688 71.9511 72.5621 71.8449 73.2147 71.6327C73.8735 71.4141 74.4853 71.0583 75.05 70.565L75.5771 71.5015C74.912 72.026 74.1904 72.4069 73.4123 72.6441C72.6405 72.8814 71.806 73 70.9087 73Z" fill="white"/>
<path d="M97.5125 72.719V59.6076H98.6043V65.1706H106.172V59.6076H107.263V72.719H106.172V66.1821H98.6043V72.719H97.5125Z" fill="white"/>
<path d="M130.413 72.719V59.6076H131.504V72.719H130.413Z" fill="white"/>
<path d="M157.328 72.719V60.6191H153.431V59.6076H162.316V60.6191H158.419V72.719H157.328Z" fill="white"/>
<path d="M184.246 72.719V59.6076H192.001V60.6191H185.338V65.2643H191.248V66.2757H185.338V71.7076H192.058V72.719H184.246Z" fill="white"/>
<path d="M220.63 73C219.268 73 218.082 72.7159 217.072 72.1478C216.068 71.5733 215.29 70.771 214.738 69.7409C214.186 68.7107 213.909 67.5119 213.909 66.1446C213.909 65.1581 214.073 64.2528 214.399 63.4287C214.731 62.5983 215.199 61.8771 215.801 61.2653C216.404 60.6472 217.113 60.1695 217.928 59.8324C218.75 59.4952 219.651 59.3267 220.63 59.3267C221.533 59.3267 222.343 59.439 223.058 59.6638C223.78 59.8886 224.388 60.207 224.884 60.6191L224.244 61.4994C223.786 61.1123 223.262 60.8251 222.672 60.6378C222.082 60.4505 221.433 60.3568 220.724 60.3568C219.87 60.3568 219.092 60.4911 218.39 60.7595C217.693 61.028 217.094 61.4151 216.592 61.9208C216.096 62.4203 215.713 63.026 215.444 63.7377C215.174 64.4495 215.039 65.2518 215.039 66.1446C215.039 67.3746 215.277 68.4235 215.754 69.2913C216.231 70.1529 216.906 70.8116 217.778 71.2674C218.65 71.7232 219.676 71.9511 220.856 71.9511C221.59 71.9511 222.283 71.8449 222.936 71.6327C223.594 71.4141 224.206 71.0583 224.771 70.565L225.298 71.5015C224.633 72.026 223.911 72.4069 223.133 72.6441C222.361 72.8814 221.527 73 220.63 73Z" fill="white"/>
<path d="M249.906 72.719V60.6191H246.01V59.6076H254.895V60.6191H250.998V72.719H249.906Z" fill="white"/>
</svg>
