<svg display="none" xmlns="http://www.w3.org/2000/svg">

    <symbol id="arrow-menu" viewBox="0 0 114 132">
        <path d="M57.2822 -4.89568e-06L57.2822 131M57.2822 131L113.282 75M57.2822 131L1.28223 75" />
    </symbol>

    <symbol id="arrow-btn" viewBox="0 0 38 21">
        <path d="M19.1374 19.6324V1.5083M19.1374 1.5083L0.864105 19.7816M19.1374 1.5083L37.4107 19.7816" />
    </symbol>

    <symbol id="arrow-right" viewBox="0 0 84 72">
        <path d="M1.54986e-06 36L83 36M83 36L47.5191 1M83 36L47.5191 71" />
    </symbol>

    <symbol id="prev" viewBox="0 0 24 24">
        <path d="M6.921 11.5L19 11.5L19 12.5L6.921 12.5L12.713 18.292L12 19L5 12L12 5L12.713 5.708L6.921 11.5Z" />
    </symbol>

    <symbol id="next" viewBox="0 0 24 24">
        <path d="M17.079 12.5H5V11.5H17.079L11.287 5.708L12 5L19 12L12 19L11.287 18.292L17.079 12.5Z" />
    </symbol>

    <symbol id="close" viewBox="0 0 16 16">
        <path
            d="M1.46663 15.3593L0.640625 14.5333L7.17396 7.99996L0.640625 1.46663L1.46663 0.640625L7.99996 7.17396L14.5333 0.640625L15.3593 1.46663L8.82596 7.99996L15.3593 14.5333L14.5333 15.3593L7.99996 8.82596L1.46663 15.3593Z"/>
    </symbol>


    <symbol id="burger-menu" viewBox="0 0 20 14">
        <path
            d="M0.666992 13.1482V11.9816H19.3337V13.1482H0.666992ZM0.666992 7.58323V6.41656H19.3337V7.58323H0.666992ZM0.666992 2.01823V0.851562H19.3337V2.01823H0.666992Z" />
    </symbol>

    <symbol id="tg" viewBox="0 0 32 32">
        <path
            d="M29.2597 3.68673C28.9723 3.44817 28.6257 3.29195 28.2566 3.23466C27.8876 3.17737 27.5099 3.22117 27.1637 3.3614L3.27437 13.0054C2.88833 13.164 2.55967 13.4363 2.33202 13.7861C2.10437 14.136 1.98849 14.5467 1.99978 14.9639C2.01106 15.3812 2.14897 15.7851 2.3952 16.1221C2.64142 16.4591 2.98432 16.7132 3.37837 16.8507L8.53304 18.6401L11.3264 27.8747C11.3317 27.8934 11.349 27.9054 11.357 27.9227C11.3862 27.9962 11.4282 28.0639 11.481 28.1227C11.5623 28.2125 11.6665 28.2784 11.7824 28.3134C11.7957 28.3187 11.805 28.3307 11.8184 28.3334H11.8264L11.8304 28.3347C11.9335 28.3568 12.0407 28.3513 12.141 28.3187L12.1744 28.3121C12.2706 28.278 12.3577 28.2224 12.429 28.1494C12.437 28.1401 12.4504 28.1387 12.4584 28.1307L16.4757 23.6961L22.3384 28.2361C22.6944 28.5147 23.133 28.6654 23.585 28.6654C24.5637 28.6654 25.4077 27.9801 25.609 27.0241L29.9584 5.66673C30.0326 5.30416 30.0068 4.92824 29.8837 4.57921C29.7606 4.23019 29.5449 3.92122 29.2597 3.6854M12.7837 20.3934L11.841 24.9761L9.87437 18.4721L19.6277 13.3921L12.965 20.0561C12.8729 20.1484 12.8099 20.2656 12.7837 20.3934ZM24.3024 26.7561C24.2773 26.877 24.2216 26.9894 24.1406 27.0826C24.0596 27.1757 23.956 27.2465 23.8397 27.2881C23.7262 27.3311 23.6035 27.3441 23.4834 27.3259C23.3634 27.3077 23.25 27.2588 23.1544 27.1841L16.8037 22.2654C16.6709 22.1629 16.5044 22.1142 16.3374 22.1291C16.1703 22.1439 16.015 22.2211 15.9024 22.3454L13.1064 25.4267L14.0477 20.8574L23.633 11.2707C23.7453 11.1581 23.8136 11.0091 23.8256 10.8505C23.8376 10.692 23.7926 10.5343 23.6986 10.4061C23.6046 10.2778 23.4679 10.1874 23.3131 10.1511C23.1583 10.1147 22.9956 10.135 22.8544 10.2081L9.03704 17.4054L3.81437 15.5894C3.67632 15.543 3.55598 15.4551 3.46982 15.3376C3.38366 15.2202 3.33589 15.079 3.33304 14.9334C3.32599 14.7862 3.36514 14.6405 3.44499 14.5167C3.52484 14.3928 3.6414 14.2971 3.77837 14.2427L27.6637 4.59873C27.7862 4.54734 27.9206 4.53085 28.0519 4.55109C28.1832 4.57133 28.3063 4.6275 28.4077 4.7134C28.5086 4.79442 28.5847 4.90204 28.6276 5.0241C28.6705 5.14615 28.6784 5.27777 28.6504 5.40407L24.3024 26.7561Z" />
    </symbol>


    <symbol id="vk" viewBox="0 0 32 32">
        <path
            d="M28.672 24.508H25.6293C24.4787 24.508 24.132 23.576 22.0693 21.512C20.2667 19.7747 19.5053 19.5587 19.0493 19.5587C18.4187 19.5587 18.2467 19.732 18.2467 20.6V23.336C18.2467 24.076 18.0067 24.5093 16.0733 24.5093C14.1977 24.3833 12.3789 23.8135 10.7666 22.8469C9.15437 21.8802 7.79483 20.5444 6.8 18.9493C4.43868 16.0088 2.79521 12.5585 2 8.87201C2 8.41601 2.17333 8.00268 3.04267 8.00268H6.08267C6.864 8.00268 7.14533 8.35068 7.452 9.15468C8.928 13.4987 11.4467 17.2773 12.4693 17.2773C12.8613 17.2773 13.032 17.104 13.032 16.1267V11.652C12.9027 9.61068 11.8187 9.43868 11.8187 8.70001C11.8324 8.50513 11.9215 8.32327 12.0672 8.19307C12.2128 8.06286 12.4035 7.99456 12.5987 8.00268H17.3773C18.0307 8.00268 18.2467 8.32801 18.2467 9.10934V15.1493C18.2467 15.8013 18.5267 16.0173 18.724 16.0173C19.116 16.0173 19.4173 15.8013 20.136 15.084C21.6759 13.2049 22.9343 11.1119 23.872 8.87068C23.9675 8.6013 24.1487 8.37067 24.3879 8.21413C24.627 8.05759 24.9109 7.98378 25.196 8.00401H28.2373C29.1493 8.00401 29.3427 8.46001 29.1493 9.11068C28.0429 11.5884 26.6742 13.9405 25.0667 16.1267C24.7387 16.6267 24.608 16.8867 25.0667 17.4733C25.368 17.9293 26.4347 18.82 27.1507 19.6667C28.1933 20.7067 29.0587 21.9093 29.7133 23.2267C29.9747 24.0747 29.54 24.508 28.672 24.508Z"
            stroke-width="1.3" />
    </symbol>

    <symbol id="whatsapp" viewBox="0 0 32 32">
        <path fill-rule="evenodd" clip-rule="evenodd"
            d="M16 2.66663C8.63602 2.66663 2.66669 8.63596 2.66669 16C2.66669 18.52 3.36669 20.88 4.58402 22.8906L3.39469 26.9333C3.3264 27.1654 3.32191 27.4116 3.38168 27.6461C3.44145 27.8805 3.56328 28.0945 3.73437 28.2656C3.90545 28.4367 4.11946 28.5585 4.35391 28.6183C4.58836 28.6781 4.83458 28.6736 5.06669 28.6053L9.10935 27.416C11.1877 28.6732 13.571 29.3364 16 29.3333C23.364 29.3333 29.3334 23.364 29.3334 16C29.3334 8.63596 23.364 2.66663 16 2.66663ZM12.984 19.0173C15.6814 21.7133 18.256 22.0693 19.1654 22.1026C20.548 22.1533 21.8947 21.0973 22.4187 19.872C22.4843 19.7194 22.508 19.5521 22.4874 19.3874C22.4667 19.2226 22.4025 19.0663 22.3014 18.9346C21.5707 18.0013 20.5827 17.3306 19.6174 16.664C19.4159 16.5243 19.1681 16.4682 18.9262 16.5075C18.6842 16.5468 18.4669 16.6784 18.32 16.8746L17.52 18.0946C17.4777 18.16 17.4122 18.2068 17.3367 18.2256C17.2612 18.2444 17.1813 18.2338 17.1134 18.196C16.5707 17.8853 15.78 17.3573 15.212 16.7893C14.644 16.2213 14.148 15.4666 13.8694 14.9586C13.8356 14.8939 13.8261 14.8193 13.8425 14.7482C13.8589 14.677 13.9001 14.6141 13.9587 14.5706L15.1907 13.656C15.367 13.5034 15.4809 13.2912 15.5104 13.0599C15.5399 12.8286 15.483 12.5946 15.3507 12.4026C14.7534 11.528 14.0574 10.416 13.048 9.67863C12.9175 9.58484 12.7649 9.52635 12.6052 9.50883C12.4454 9.49131 12.2838 9.51535 12.136 9.57863C10.9094 10.104 9.84802 11.4506 9.89869 12.836C9.93202 13.7453 10.288 16.32 12.984 19.0173Z"
            stroke-width="1.3" />
    </symbol>


</svg>